# xmcd
#
# Track frame offsets:
#	150
#	3443
#	19189
#	37443
#	50451
#	66950
#	82369
#	91775
#	100958
#	108081
#	117665
#	127252
#	137102
#	149672
#	166270
#	183620
#	189087
#	208274
#	224371
#	235043
#	259378
#
# Disc length: 3697 seconds
#
# Revision: 1
# Processed by: cddbd v1.5.1PL0 Copyright (c) Steve Scherf et al.
# Submitted via: CDex 1.50Beta5
#
DISCID=470e6f15
DTITLE=KIM's SOUNDROOM - KIM's SOUNDROOM SOUND COLLECTION
DYEAR=1900
DGENRE=Game
TTITLE0=GIGOLO
TTITLE1=DAILYLIFE
TTITLE2=CRAZE
TTITLE3=DIALOGUE(Ballad)
TTITLE4=SPARKLING MIND
TTITLE5=DIALOGUE(Inst.)
TTITLE6=EVERLOYALTY
TTITLE7=GENTLY BREATH
TTITLE8=FLY SPACE
TTITLE9=WARMLY CLAM
TTITLE10=HEAVENLY FRENZ
TTITLE11=ETERNITY MIND
TTITLE12=七海島の一夜 Ver.A
TTITLE13=あいすくりん屋
TTITLE14=夕凪の丘で
TTITLE15=夢幻
TTITLE16=魅弥のれすとらん
TTITLE17=七海島の一夜 Ver.B
TTITLE18=LUNAR CAGE
TTITLE19=Promised land
TTITLE20=Remembrance
EXTD=
EXTT0=
EXTT1=
EXTT2=
EXTT3=
EXTT4=
EXTT5=
EXTT6=
EXTT7=
EXTT8=
EXTT9=
EXTT10=
EXTT11=
EXTT12=
EXTT13=
EXTT14=
EXTT15=
EXTT16=
EXTT17=
EXTT18=
EXTT19=
EXTT20=
PLAYORDER=
